<svg xmlns="http://www.w3.org/2000/svg" viewBox="0 0 192 192">
  <defs>
    <linearGradient id="grad1" x1="0%" y1="0%" x2="100%" y2="100%">
      <stop offset="0%" style="stop-color:#3b82f6;stop-opacity:1" />
      <stop offset="100%" style="stop-color:#8b5cf6;stop-opacity:1" />
    </linearGradient>
    <linearGradient id="grad2" x1="0%" y1="0%" x2="100%" y2="100%">
      <stop offset="0%" style="stop-color:#06b6d4;stop-opacity:1" />
      <stop offset="100%" style="stop-color:#3b82f6;stop-opacity:1" />
    </linearGradient>
  </defs>
  
  <!-- Background circle -->
  <circle cx="96" cy="96" r="90" fill="url(#grad1)"/>
  
  <!-- Location pin shape -->
  <path d="M96 30c-24.9 0-45 20.1-45 45 0 33.8 45 75 45 75s45-41.2 45-75c0-24.9-20.1-45-45-45z" 
        fill="white" opacity="0.95"/>
  
  <!-- Inner circle with checkmark -->
  <circle cx="96" cy="75" r="22.5" fill="url(#grad2)"/>
  
  <!-- Checkmark -->
  <path d="M86.3 75 L93.8 82.5 L106.9 67.5" 
        stroke="white" stroke-width="4.5" stroke-linecap="round" stroke-linejoin="round" fill="none"/>
  
  <!-- Network dots -->
  <circle cx="67.5" cy="142.5" r="4.5" fill="white" opacity="0.7"/>
  <circle cx="96" cy="157.5" r="4.5" fill="white" opacity="0.7"/>
  <circle cx="124.5" cy="142.5" r="4.5" fill="white" opacity="0.7"/>
  
  <!-- Connection lines -->
  <line x1="67.5" y1="142.5" x2="96" y2="120" stroke="white" stroke-width="1.1" opacity="0.5"/>
  <line x1="96" y1="157.5" x2="96" y2="120" stroke="white" stroke-width="1.1" opacity="0.5"/>
  <line x1="124.5" y1="142.5" x2="96" y2="120" stroke="white" stroke-width="1.1" opacity="0.5"/>
</svg>
