<svg xmlns="http://www.w3.org/2000/svg" viewBox="0 0 512 512">
  <defs>
    <linearGradient id="grad1" x1="0%" y1="0%" x2="100%" y2="100%">
      <stop offset="0%" style="stop-color:#3b82f6;stop-opacity:1" />
      <stop offset="100%" style="stop-color:#8b5cf6;stop-opacity:1" />
    </linearGradient>
    <linearGradient id="grad2" x1="0%" y1="0%" x2="100%" y2="100%">
      <stop offset="0%" style="stop-color:#06b6d4;stop-opacity:1" />
      <stop offset="100%" style="stop-color:#3b82f6;stop-opacity:1" />
    </linearGradient>
  </defs>
  
  <!-- Background circle -->
  <circle cx="256" cy="256" r="240" fill="url(#grad1)"/>
  
  <!-- Location pin shape -->
  <path d="M256 80c-66.3 0-120 53.7-120 120 0 90 120 200 120 200s120-110 120-200c0-66.3-53.7-120-120-120z" 
        fill="white" opacity="0.95"/>
  
  <!-- Inner circle with checkmark -->
  <circle cx="256" cy="200" r="60" fill="url(#grad2)"/>
  
  <!-- Checkmark -->
  <path d="M230 200 L250 220 L285 180" 
        stroke="white" stroke-width="12" stroke-linecap="round" stroke-linejoin="round" fill="none"/>
  
  <!-- Network dots representing addresses -->
  <circle cx="180" cy="380" r="12" fill="white" opacity="0.7"/>
  <circle cx="256" cy="420" r="12" fill="white" opacity="0.7"/>
  <circle cx="332" cy="380" r="12" fill="white" opacity="0.7"/>
  
  <!-- Connection lines -->
  <line x1="180" y1="380" x2="256" y2="320" stroke="white" stroke-width="3" opacity="0.5"/>
  <line x1="256" y1="420" x2="256" y2="320" stroke="white" stroke-width="3" opacity="0.5"/>
  <line x1="332" y1="380" x2="256" y2="320" stroke="white" stroke-width="3" opacity="0.5"/>
</svg>
